<svg width="38" height="70" viewBox="0 0 38 70" fill="none" xmlns="http://www.w3.org/2000/svg">
<path id="Vector" d="M33.7455 40.2083C34.9595 40.2083 36.0782 39.5998 36.7374 38.5811C37.3963 37.5628 37.4933 36.2942 36.9961 35.1877L22.4261 2.76215C21.8298 1.43394 20.5545 0.605435 19.0978 0.599976C19.0927 0.599976 19.0885 0.599976 19.0835 0.599976C17.6327 0.599976 16.3574 1.4184 15.7514 2.74158L1.09448 35.1642C0.587212 36.2715 0.677495 37.5451 1.33593 38.5701C1.99437 39.596 3.11556 40.2083 4.33459 40.2083H14.6323V46.4962H13.5767C13.1017 46.4962 12.7167 46.8812 12.7167 47.3562V63.0323C12.7167 66.5432 15.5734 69.4 19.0844 69.4C22.5957 69.4 25.4525 66.5432 25.4525 63.0323V47.3562C25.4525 46.8812 25.0674 46.4962 24.5925 46.4962H23.4585L23.4522 40.2083H33.7455ZM4.33459 38.4883C3.69421 38.4883 3.129 38.1796 2.78298 37.6409C2.43781 37.1029 2.39246 36.4613 2.65995 35.8764L17.3169 3.45418C17.6423 2.74326 18.3025 2.31998 19.0835 2.31998C19.086 2.31998 19.089 2.31998 19.0915 2.31998C19.8759 2.32291 20.536 2.75166 20.8573 3.46678L35.4273 35.8923C35.6881 36.4726 35.6394 37.1122 35.2933 37.6463C34.9473 38.1813 34.3829 38.4883 33.7455 38.4883H23.4504L23.4444 32.4792C23.4444 30.0508 21.4678 28.075 19.0382 28.075C16.6089 28.075 14.6323 30.0508 14.6323 32.4792V38.4883H4.33459ZM23.7325 63.0323C23.7325 65.5951 21.6471 67.68 19.0844 67.68C16.5216 67.68 14.4367 65.5951 14.4367 63.0323V48.2162H23.7325V63.0323ZM16.3523 46.4962V32.4792C16.3523 30.999 17.5571 29.795 19.0382 29.795C20.5192 29.795 21.7244 30.999 21.7244 32.48L21.7385 46.4962H16.3523Z" fill="#27374D"/>
</svg>
