<svg width="85" height="69" viewBox="0 0 85 69" fill="none" xmlns="http://www.w3.org/2000/svg">
<g id="Group">
<g id="Group_2">
<path id="Vector" d="M36.9547 52.8783C36.4272 52.8783 35.9991 52.4454 35.9991 51.9121V39.4097C35.9991 38.8763 36.4272 38.4435 36.9547 38.4435C37.4822 38.4435 37.9103 38.8763 37.9103 39.4097V51.9121C37.9103 52.4473 37.4822 52.8783 36.9547 52.8783Z" fill="#27374D"/>
</g>
<g id="Group_3">
<path id="Vector_2" d="M46.2217 52.8783C45.6942 52.8783 45.2661 52.4454 45.2661 51.9121V41.6725C45.2661 41.1391 45.6942 40.7063 46.2217 40.7063C46.7491 40.7063 47.1772 41.1391 47.1772 41.6725V51.9121C47.1772 52.4474 46.751 52.8783 46.2217 52.8783Z" fill="#27374D"/>
</g>
<g id="Group_4">
<path id="Vector_3" d="M65.7322 59.8908H24.6452C24.1177 59.8908 23.6897 59.458 23.6897 58.9247C23.6897 58.3913 24.1177 57.9585 24.6452 57.9585H65.7322C66.2597 57.9585 66.6877 58.3913 66.6877 58.9247C66.6877 59.458 66.2597 59.8908 65.7322 59.8908ZM12.7084 51.7131C12.3281 51.7131 11.9707 51.4831 11.8197 51.1044L9.40219 44.9846C9.31619 44.7662 9.31237 44.5247 9.38881 44.3044L12.2115 36.2387C12.3071 35.9643 12.5211 35.7478 12.7944 35.6493L29.7326 29.601C29.9065 29.5392 30.0957 29.5295 30.2753 29.572L72.3083 39.8367C72.6925 39.9314 72.9791 40.2541 73.0307 40.6503L74.2519 50.0686C74.3207 50.5981 73.9519 51.0831 73.4282 51.1527C72.9065 51.2203 72.4249 50.8493 72.3561 50.3198L71.2209 41.5604L30.1014 31.5179L13.8608 37.3189L11.3095 44.6058L13.5933 50.3875C13.7882 50.8841 13.5493 51.4445 13.0601 51.6435C12.9473 51.6918 12.8269 51.7131 12.7084 51.7131Z" fill="#27374D"/>
</g>
<g id="Group_5">
<path id="Vector_4" d="M60.4174 52.8782H29.9619C29.5988 52.8782 29.2663 52.6695 29.1058 52.341C26.9462 47.9333 22.7915 44.8975 17.9927 44.2173C17.7079 44.1768 17.4575 44.0106 17.3085 43.7613C17.1594 43.514 17.1288 43.2106 17.2244 42.9381L17.6467 41.7323C17.7423 41.4579 17.9563 41.2415 18.2296 41.1429L30.1072 36.9014C30.2811 36.8396 30.4703 36.8299 30.6499 36.8724L65.2774 45.3285C65.6367 45.4154 65.9138 45.7053 65.9883 46.0724C66.0628 46.4396 65.9233 46.8164 65.6271 47.0405C63.7963 48.4318 62.2922 50.2637 61.2755 52.3371C61.1131 52.6714 60.7805 52.8782 60.4174 52.8782ZM30.5429 50.9458H59.8364C60.6659 49.398 61.7399 47.9816 63.0012 46.7642L30.476 38.8222L19.8598 42.6135C24.4044 43.7265 28.2935 46.7449 30.5429 50.9458Z" fill="#27374D"/>
</g>
<g id="Group_6">
<path id="Vector_5" d="M15.9382 68.6946C10.61 68.6946 6.27563 64.312 6.27563 58.9246C6.27563 53.5371 10.61 49.1545 15.9382 49.1545C21.2664 49.1545 25.6008 53.5371 25.6008 58.9246C25.6008 64.312 21.2664 68.6946 15.9382 68.6946ZM15.9382 51.0869C11.6631 51.0869 8.18675 54.6038 8.18675 58.9246C8.18675 63.2454 11.665 66.7623 15.9382 66.7623C20.2115 66.7623 23.6897 63.2454 23.6897 58.9246C23.6897 54.6038 20.2115 51.0869 15.9382 51.0869Z" fill="#27374D"/>
</g>
<g id="Group_7">
<path id="Vector_6" d="M74.4392 68.6946C69.111 68.6946 64.7766 64.312 64.7766 58.9246C64.7766 53.5371 69.111 49.1545 74.4392 49.1545C79.7674 49.1545 84.1018 53.5371 84.1018 58.9246C84.1018 64.312 79.7674 68.6946 74.4392 68.6946ZM74.4392 51.0869C70.164 51.0869 66.6877 54.6038 66.6877 58.9246C66.6877 63.2454 70.1659 66.7623 74.4392 66.7623C78.7124 66.7623 82.1907 63.2454 82.1907 58.9246C82.1907 54.6038 78.7124 51.0869 74.4392 51.0869Z" fill="#27374D"/>
</g>
<g id="Group_8">
<path id="Vector_7" d="M74.4392 62.8569C72.2949 62.8569 70.5501 61.0927 70.5501 58.9246C70.5501 56.7564 72.2949 54.9922 74.4392 54.9922C76.5835 54.9922 78.3283 56.7564 78.3283 58.9246C78.3283 61.0927 76.5835 62.8569 74.4392 62.8569ZM74.4392 56.9246C73.348 56.9246 72.4612 57.8212 72.4612 58.9246C72.4612 60.0279 73.348 60.9246 74.4392 60.9246C75.5305 60.9246 76.4172 60.0279 76.4172 58.9246C76.4172 57.8212 75.5305 56.9246 74.4392 56.9246Z" fill="#27374D"/>
</g>
<g id="Group_9">
<path id="Vector_8" d="M15.9382 62.8569C13.7939 62.8569 12.0491 61.0927 12.0491 58.9246C12.0491 56.7564 13.7939 54.9922 15.9382 54.9922C18.0824 54.9922 19.8273 56.7564 19.8273 58.9246C19.8273 61.0927 18.0824 62.8569 15.9382 62.8569ZM15.9382 56.9246C14.8469 56.9246 13.9602 57.8212 13.9602 58.9246C13.9602 60.0279 14.8469 60.9246 15.9382 60.9246C17.0294 60.9246 17.9162 60.0279 17.9162 58.9246C17.9162 57.8212 17.0294 56.9246 15.9382 56.9246Z" fill="#27374D"/>
</g>
<g id="Group_10">
<path id="Vector_9" d="M62.1699 39.3208C61.6424 39.3208 61.2143 38.8879 61.2143 38.3546V25.2744H36.0527V31.742C36.0527 32.2754 35.6246 32.7082 35.0971 32.7082C34.5696 32.7082 34.1415 32.2754 34.1415 31.742V24.3082C34.1415 23.7749 34.5696 23.342 35.0971 23.342H62.1699C62.6974 23.342 63.1255 23.7749 63.1255 24.3082V38.3546C63.1255 38.8899 62.6974 39.3208 62.1699 39.3208Z" fill="#27374D"/>
</g>
<g id="Group_11">
<path id="Vector_10" d="M57.5355 25.2744C57.008 25.2744 56.5799 24.8415 56.5799 24.3082V18.2618H40.6871V24.3082C40.6871 24.8415 40.259 25.2744 39.7316 25.2744C39.2041 25.2744 38.776 24.8415 38.776 24.3082V17.2957C38.776 16.7623 39.2041 16.3295 39.7316 16.3295H57.5355C58.0629 16.3295 58.491 16.7623 58.491 17.2957V24.3082C58.491 24.8415 58.0629 25.2744 57.5355 25.2744Z" fill="#27374D"/>
</g>
<g id="Group_12">
<path id="Vector_11" d="M18.5736 35.5777C18.1971 35.5777 17.8417 35.3517 17.6888 34.9787L6.97891 8.58451H0.953175C0.425709 8.58451 -0.00238037 8.15166 -0.00238037 7.61832V1.14489C-0.00238037 0.611561 0.425709 0.178711 0.953175 0.178711H11.8905C12.2784 0.178711 12.6282 0.416392 12.7753 0.777744L25.4804 32.0918C25.681 32.5864 25.4479 33.1507 24.9586 33.3517C24.4694 33.5546 23.9114 33.3188 23.7126 32.8241L11.2502 2.11301H1.90873V6.65407H7.61913C8.00709 6.65407 8.35682 6.89175 8.50397 7.25311L19.4566 34.2463C19.6572 34.741 19.4241 35.3053 18.9348 35.5062C18.8163 35.5546 18.694 35.5777 18.5736 35.5777Z" fill="#27374D"/>
</g>
</g>
</svg>
