<svg width="86" height="88" viewBox="0 0 86 88" fill="none" xmlns="http://www.w3.org/2000/svg">
<g id="noun-flooring-938908 1">
<g id="Group">
<path id="Vector" d="M78.604 6.44995H7.39601C6.88001 6.44995 6.45001 6.87995 6.45001 7.39595V78.518C6.45001 79.034 6.88001 79.464 7.39601 79.464H78.518C79.034 79.464 79.464 79.034 79.464 78.518V7.39595C79.55 6.87995 79.12 6.44995 78.604 6.44995ZM47.214 28.552V22.36H73.788V28.552H47.214ZM43.516 35.3459V29.4979H62.78V35.3459H43.516ZM43.516 42.484V37.8399V36.292H55.47V42.3979H43.516V42.484ZM42.484 8.42795V17.802L41.022 16.34L33.11 8.42795H42.484ZM43.516 28.552V22.36H46.268V28.552H43.516ZM8.42801 12.212V8.42795H12.814L17.458 13.072L17.888 13.502L19.35 14.964L42.484 38.0979V42.484H38.7L33.884 37.6679L32.422 36.2059L21.672 25.3699L13.846 17.544L8.60001 12.298L8.42801 12.212ZM42.484 66.8219L34.142 75.1639L29.928 70.95L42.484 58.394V66.8219ZM42.484 57.018L34.4 65.1019L30.53 61.2319L38.012 53.75C38.012 53.75 38.098 53.75 38.098 53.664L42.57 49.1919V57.018H42.484ZM13.416 68.7999L32.852 49.3639L36.98 53.492L17.544 72.9279L13.416 68.7999ZM8.42801 63.6399L19.952 52.1159L24.338 56.5019L8.42801 72.4119V63.6399ZM8.42801 53.664L9.80401 52.2879L14.104 56.588L8.42801 62.264V53.664ZM8.42801 43.5159H17.2L9.46001 51.2559L8.42801 52.2879V43.5159ZM8.42801 33.712L17.2 42.484H8.42801V33.712ZM37.324 43.5159L32.508 48.332L25.026 55.8139L20.64 51.4279L28.552 43.5159H37.324ZM14.792 55.8139L10.492 51.514L18.576 43.43H27.09L14.792 55.8139ZM42.484 47.902L37.668 52.7179L33.54 48.6759L38.7 43.5159H42.484V47.902ZM20.984 26.1439L33.282 38.4419L37.324 42.484H28.552L8.42801 22.36V13.588L13.072 18.232L20.984 26.1439ZM8.42801 23.822L20.382 35.7759L27.176 42.57H25.456H18.662L17.2 41.1079L16.684 40.5919L8.68601 32.594L8.34201 32.5079V23.822H8.42801ZM29.842 62.0059L33.712 65.8759L21.93 77.5719H14.19L29.842 62.0059ZM31.734 8.42795L37.84 14.534L39.904 16.5979L41.624 18.318L42.398 19.092V27.52L30.96 16.082L23.306 8.42795H31.734ZM21.93 8.42795L30.272 16.77L42.484 28.982V36.722L18.662 12.814C18.662 12.814 18.662 12.728 18.576 12.728L14.276 8.42795H21.93ZM8.42801 77.5719V73.7879L12.728 69.4879L16.856 73.6159L12.9 77.5719H8.42801ZM29.24 71.7239L33.454 75.938L31.82 77.5719H23.392L29.24 71.7239ZM33.196 77.5719L34.486 76.2819L42.484 68.284V77.658H33.196V77.5719ZM43.516 21.3279V18.92V15.222H62.78V21.3279H43.516ZM43.516 14.276V8.42795H55.47V14.276H43.516ZM43.516 67.0799V57.1899V48.16V43.5159H49.794V77.658H43.516V67.0799ZM50.74 43.43H56.932V46.8699V57.964V75.4219V77.658H50.74V43.43ZM57.964 75.3359V57.964V46.8699V43.43H63.726V77.5719H57.964V75.3359ZM64.758 43.43H70.176V77.5719H64.758V43.43ZM56.502 42.484V36.3779H77.572V42.484H56.502ZM63.726 35.3459V29.4979H77.572V35.3459H63.726ZM77.572 28.552H74.82V22.36H77.572V28.552ZM63.726 21.3279V15.222H77.572V21.3279H63.726ZM77.572 14.276H56.502V8.42795H77.572V14.276ZM71.122 77.5719V43.43H77.572V77.5719H71.122Z" fill="#27374D"/>
</g>
</g>
</svg>
