<svg width="89" height="39" viewBox="0 0 89 39" fill="none" xmlns="http://www.w3.org/2000/svg">
<g id="Social med">
<path id="Vector" d="M15.9412 6.47563H19.5016V0.274625C18.8874 0.190125 16.7749 0 14.3146 0C9.18125 0 5.66475 3.22888 5.66475 9.16337V14.625H0V21.5572H5.66475V39H12.61V21.5589H18.0456L18.9085 14.6266H12.6084V9.85075C12.61 7.84713 13.1495 6.47563 15.9412 6.47563Z" fill="white"/>
<g id="&#208;&#184;&#208;&#189;&#209;&#129;&#209;&#130;&#208;&#176;">
<path id="Vector_2" d="M88.395 11.4661C88.3037 9.39392 87.9686 7.96928 87.4885 6.73481C86.9933 5.42445 86.2315 4.25129 85.2333 3.27604C84.258 2.28561 83.0771 1.516 81.782 1.02852C80.5403 0.548487 79.1231 0.213383 77.0509 0.122018C74.9632 0.0229156 74.3005 0 69.0055 0C63.7105 0 63.0477 0.0229156 60.9677 0.11428C58.8955 0.205645 57.4709 0.541047 56.2367 1.02079C54.926 1.516 53.7529 2.27787 52.7776 3.27604C51.7872 4.25129 51.0179 5.43219 50.5301 6.72737C50.0501 7.96928 49.715 9.38618 49.6236 11.4584C49.5245 13.5461 49.5016 14.2089 49.5016 19.5039C49.5016 24.7989 49.5245 25.4616 49.6159 27.5416C49.7072 29.6138 50.0426 31.0385 50.5227 32.2729C51.0179 33.5833 51.7872 34.7564 52.7776 35.7317C53.7529 36.7221 54.9338 37.4917 56.229 37.9792C57.4709 38.4592 58.8878 38.7944 60.9603 38.8857C63.04 38.9774 63.703 39 68.998 39C74.293 39 74.9558 38.9774 77.0357 38.8857C79.108 38.7944 80.5326 38.4592 81.7668 37.9792C84.3878 36.9659 86.46 34.8936 87.4734 32.2729C87.9531 31.031 88.2885 29.6138 88.3799 27.5416C88.4712 25.4616 88.4941 24.7989 88.4941 19.5039C88.4941 14.2089 88.4864 13.5461 88.395 11.4661ZM84.883 27.3892C84.7991 29.2939 84.4791 30.3224 84.2125 31.0081C83.5572 32.7071 82.2087 34.0556 80.5097 34.7109C79.824 34.9776 78.788 35.2975 76.8908 35.3811C74.8338 35.4728 74.2168 35.4954 69.0132 35.4954C63.8096 35.4954 63.1849 35.4728 61.1353 35.3811C59.2306 35.2975 58.2021 34.9776 57.5164 34.7109C56.6709 34.3984 55.9013 33.9032 55.2766 33.2556C54.629 32.6232 54.1338 31.8613 53.8213 31.0158C53.5547 30.3302 53.2347 29.2939 53.1511 27.397C53.0595 25.3399 53.0368 24.7227 53.0368 19.519C53.0368 14.3154 53.0595 13.6907 53.1511 11.6414C53.2347 9.73676 53.5547 8.70823 53.8213 8.02255C54.1338 7.17675 54.629 6.40744 55.2844 5.78247C55.9165 5.13488 56.6783 4.63967 57.5241 4.32748C58.2098 4.06083 59.2461 3.7409 61.143 3.65698C63.2001 3.56561 63.8173 3.54269 69.0206 3.54269C74.232 3.54269 74.8489 3.56561 76.8985 3.65698C78.8032 3.7409 79.8317 4.06083 80.5174 4.32748C81.3629 4.63967 82.1325 5.13488 82.7572 5.78247C83.4048 6.41488 83.9 7.17675 84.2125 8.02255C84.4791 8.70823 84.7991 9.7442 84.883 11.6414C84.9744 13.6985 84.9973 14.3154 84.9973 19.519C84.9973 24.7227 84.9744 25.3322 84.883 27.3892Z" fill="white"/>
<path id="Vector_3" d="M69.0055 9.4856C63.4745 9.4856 58.9869 13.9729 58.9869 19.5042C58.9869 25.0355 63.4745 29.5228 69.0055 29.5228C74.5368 29.5228 79.0241 25.0355 79.0241 19.5042C79.0241 13.9729 74.5368 9.4856 69.0055 9.4856ZM69.0055 26.003C65.4172 26.003 62.5067 23.0927 62.5067 19.5042C62.5067 15.9157 65.4172 13.0054 69.0055 13.0054C72.594 13.0054 75.5043 15.9157 75.5043 19.5042C75.5043 23.0927 72.594 26.003 69.0055 26.003Z" fill="white"/>
<path id="Vector_4" d="M81.7595 9.08913C81.7595 10.3807 80.7122 11.428 79.4203 11.428C78.1287 11.428 77.0814 10.3807 77.0814 9.08913C77.0814 7.79722 78.1287 6.75024 79.4203 6.75024C80.7122 6.75024 81.7595 7.79722 81.7595 9.08913Z" fill="white"/>
</g>
</g>
</svg>
