<svg width="84" height="80" viewBox="0 0 84 80" fill="none" xmlns="http://www.w3.org/2000/svg">
<path id="Vector" d="M83.7092 4.38656C83.7083 4.27648 83.6868 4.1664 83.6438 4.06234C83.5561 3.85164 83.3893 3.6848 83.1786 3.59708C82.9687 3.51022 82.7314 3.51022 82.5215 3.59708C82.4157 3.64094 82.3211 3.70372 82.2412 3.78284C78.464 7.55738 72.3219 7.55566 68.5474 3.78284C68.4674 3.70372 68.3728 3.64008 68.267 3.59708C68.0572 3.51022 67.8198 3.51022 67.61 3.59708C67.5042 3.64094 67.4096 3.70372 67.3296 3.78284C63.5525 7.55652 57.4104 7.55824 53.635 3.78284C53.5559 3.70372 53.4604 3.64094 53.3555 3.59708C53.2617 3.55838 53.1611 3.54204 53.0622 3.53774C53.0493 3.53774 53.039 3.53086 53.0261 3.53086C52.9977 3.53086 52.9728 3.54462 52.9453 3.5472C52.861 3.55494 52.7784 3.5644 52.6993 3.59708C52.4877 3.6848 52.3192 3.8525 52.2315 4.06492C52.2057 4.12942 52.2014 4.19822 52.191 4.26616C52.1842 4.3083 52.1661 4.347 52.1661 4.39086V12.0655H40.2835L32.4781 0.733283C32.4738 0.727263 32.4669 0.724683 32.4626 0.718663C32.4007 0.633523 32.325 0.557843 32.2356 0.500223C32.153 0.446903 32.0619 0.415083 31.9681 0.392723C31.9527 0.389283 31.9406 0.378103 31.9251 0.375523C31.9114 0.372943 31.8993 0.378103 31.8864 0.376383C31.7884 0.362623 31.6886 0.360043 31.5897 0.381543C31.4891 0.403043 31.3962 0.446043 31.3102 0.500223C31.3016 0.506243 31.2905 0.506243 31.2819 0.512263C31.275 0.516563 31.2715 0.524303 31.2655 0.529463C31.1812 0.590523 31.1064 0.664483 31.0488 0.753923C30.9869 0.849383 30.9439 0.955163 30.9241 1.06524C30.4554 3.60912 29.0244 5.8176 26.8933 7.28476C24.7622 8.75278 22.1891 9.30232 19.6452 8.83276C19.536 8.81298 19.4233 8.8147 19.3124 8.83706C19.0888 8.88436 18.8927 9.01938 18.768 9.21116C18.7069 9.30662 18.6639 9.4124 18.6433 9.52248C18.6235 9.63256 18.6252 9.74694 18.6493 9.85788C18.6717 9.9628 18.7147 10.0591 18.7723 10.1468C18.7766 10.1529 18.7766 10.1597 18.7809 10.1658L20.089 12.0646H1.15004C0.675319 12.0646 0.290039 12.4499 0.290039 12.9246C0.290039 13.3994 0.675319 13.7846 1.15004 13.7846H21.2723L23.793 17.4439H1.15004C0.675319 17.4439 0.290039 17.8292 0.290039 18.3039C0.290039 18.7787 0.675319 19.1639 1.15004 19.1639H24.9781L28.8919 24.846C28.8928 24.8477 28.8945 24.8477 28.8962 24.8494C28.9676 24.9517 29.0656 25.0317 29.1766 25.0962C29.2153 25.1186 29.2557 25.1289 29.297 25.1444C29.3469 25.1633 29.3899 25.1934 29.4449 25.2037C30.1406 25.3319 30.8329 25.3938 31.5166 25.3938C33.5755 25.3938 35.5466 24.8296 37.2554 23.8303V29.8881H1.15004C0.675319 29.8881 0.290039 30.2734 0.290039 30.7481C0.290039 31.2229 0.675319 31.6081 1.15004 31.6081H37.2546V35.2666H1.15004C0.675319 35.2666 0.290039 35.6519 0.290039 36.1266C0.290039 36.6013 0.675319 36.9866 1.15004 36.9866H37.2546V40.0396V47.7134H1.15004C0.675319 47.7134 0.290039 48.0978 0.290039 48.5734C0.290039 49.0489 0.675319 49.4334 1.15004 49.4334H37.2546V53.0935H1.15004C0.675319 53.0935 0.290039 53.4779 0.290039 53.9535C0.290039 54.4291 0.675319 54.8135 1.15004 54.8135H37.2546V57.8648V65.5386H1.15004C0.675319 65.5386 0.290039 65.923 0.290039 66.3986C0.290039 66.8742 0.675319 67.2586 1.15004 67.2586H37.2546V70.9179H1.15004C0.675319 70.9179 0.290039 71.3023 0.290039 71.7779C0.290039 72.2535 0.675319 72.6379 1.15004 72.6379H37.2546V75.6909C37.2546 75.8027 37.2769 75.9145 37.3208 76.0194C37.3646 76.1252 37.4283 76.2198 37.5074 76.2998C39.7305 78.522 42.6493 79.6331 45.5699 79.6331C48.2342 79.6331 50.8916 78.6966 53.0261 76.8484C55.1606 78.6974 57.8172 79.6331 60.4814 79.6331C63.1457 79.6331 65.8031 78.6974 67.9385 76.8484C70.0722 78.6966 72.7296 79.6323 75.3938 79.6323C78.3144 79.6323 81.2332 78.522 83.4563 76.3006C83.5363 76.2206 83.6 76.1252 83.6438 76.0194C83.6877 75.9145 83.71 75.8027 83.71 75.6909V57.8665V40.0413V22.2169V4.39086C83.71 4.38914 83.7092 4.38828 83.7092 4.38656ZM41.6655 19.1648H52.1661V21.836C48.5971 25.1642 43.1103 25.2957 39.396 22.2161C40.3093 21.344 41.0781 20.3155 41.6655 19.1648ZM67.0785 39.6603C63.3685 43.1184 57.5944 43.1192 53.8861 39.6603V24.0487C55.8546 25.448 58.1655 26.1592 60.4814 26.1592C62.7974 26.1592 65.1091 25.448 67.0785 24.0487V39.6603ZM53.8861 41.874C55.8546 43.2732 58.1655 43.9844 60.4814 43.9844C62.7974 43.9844 65.1091 43.2732 67.0785 41.874V57.4855C63.3685 60.9419 57.5944 60.9436 53.8861 57.4847V41.874ZM81.99 57.4855C78.2809 60.9436 72.5068 60.9427 68.7985 57.4855V41.874C70.767 43.2732 73.0779 43.9835 75.3947 43.9835C77.7107 43.9835 80.0215 43.2723 81.99 41.874V57.4855ZM81.99 39.6612C78.2809 43.1192 72.5085 43.121 68.7985 39.6612V24.0496C70.767 25.448 73.0779 26.1592 75.3938 26.1592C77.7107 26.1592 80.0215 25.448 81.99 24.0496V39.6612ZM45.5699 26.1583C47.8859 26.1583 50.1976 25.4471 52.1661 24.0487V39.6612C52.0096 39.8065 51.8565 39.9553 51.6931 40.0886C51.632 40.1385 51.5658 40.1806 51.503 40.2296C51.307 40.3819 51.11 40.5341 50.9053 40.6691C50.883 40.6846 50.858 40.6958 50.8357 40.7112C47.6451 42.7795 43.4956 42.7804 40.3041 40.7112C40.2818 40.6966 40.2577 40.6846 40.2353 40.67C40.0289 40.5341 39.8311 40.3819 39.6333 40.2279C39.5723 40.1806 39.5078 40.1393 39.4484 40.0903C39.285 39.957 39.1311 39.8082 38.9746 39.662V36.1292V30.7507V24.0505C40.9431 25.448 43.2531 26.1583 45.5699 26.1583ZM38.9746 53.9552V48.5751V41.8774C39.0786 41.9522 39.1792 42.0331 39.285 42.1036C39.3237 42.1285 39.365 42.15 39.4037 42.175C41.2269 43.3514 43.3477 43.9896 45.569 43.9896C47.8136 43.9896 49.9568 43.3411 51.792 42.1406C51.8101 42.1277 51.8307 42.1191 51.8496 42.1062C51.9571 42.0348 52.0586 41.9531 52.1644 41.8774V57.4855C48.6152 60.7948 43.1688 60.9479 39.4562 57.9216C39.2893 57.7865 39.1328 57.6343 38.9728 57.4855V53.9552H38.9746ZM75.3938 8.3331C77.7107 8.3331 80.0215 7.62188 81.99 6.22352V21.836C78.2809 25.2932 72.5085 25.294 68.7985 21.836V6.22352C70.767 7.62274 73.0779 8.3331 75.3938 8.3331ZM67.0785 6.22352V21.836C63.3685 25.2932 57.5944 25.2949 53.8861 21.836V6.22352C55.8546 7.62274 58.1655 8.33396 60.4814 8.33396C62.7974 8.33396 65.1091 7.62274 67.0785 6.22352ZM52.1661 13.7855V17.4448H42.369C42.5126 16.9942 42.6382 16.5341 42.7267 16.0568C42.7465 15.9467 42.7448 15.8323 42.7207 15.7214C42.6992 15.6173 42.6554 15.521 42.5977 15.4333C42.5943 15.4272 42.5934 15.4195 42.5891 15.4135L41.4677 13.7855H52.1661ZM30.0925 23.5577L21.2422 10.7084C21.3024 10.7093 21.3635 10.717 21.4237 10.717C23.7113 10.717 25.943 10.0273 27.8685 8.70118C29.8448 7.3398 31.2999 5.43232 32.1023 3.22126L40.956 16.0748C39.8638 21.0276 35.1106 24.3024 30.0925 23.5577ZM38.9746 75.3116V71.7796V66.4003V59.6992C40.9431 61.0975 43.2531 61.8088 45.5699 61.8088C47.8859 61.8088 50.1976 61.0975 52.1661 59.6992V75.3116C48.4578 78.768 42.6846 78.7697 38.9746 75.3116ZM53.8861 75.3108V59.6983C55.8546 61.0975 58.1655 61.8088 60.4814 61.8088C62.7974 61.8088 65.1091 61.0975 67.0785 59.6983V75.3116C63.3685 78.7671 57.5944 78.7697 53.8861 75.3108ZM68.7985 75.3116V59.6992C70.767 61.0967 73.0779 61.8079 75.3938 61.8079C77.7107 61.8079 80.0215 61.0967 81.99 59.6992V75.3116C78.2809 78.7688 72.5068 78.7671 68.7985 75.3116Z" fill="#334256"/>
</svg>
