<svg width="56" height="45" viewBox="0 0 56 45" fill="none" xmlns="http://www.w3.org/2000/svg">
<path id="Vector" d="M2.42225 44.3333C1.292 44.3333 0.5 43.4701 0.5 42.5018C0.5 41.8129 0.89875 41.0742 1.86675 40.5568C6.78375 37.9368 12.4762 28.8649 12.4762 23.2707C4.18225 23.5252 0.57975 16.1271 0.57975 11.4902C0.57975 5.94028 5.35925 0.0666504 12.4268 0.0666504C21.3395 0.0666504 25.7092 7.11335 25.7092 14.7494C25.7092 31.2968 6.91575 44.3333 2.42225 44.3333ZM32.213 44.3333C31.0855 44.3333 30.2908 43.4701 30.2908 42.5018C30.2908 41.8129 30.6895 41.0742 31.6575 40.5568C36.5745 37.9368 42.267 28.8649 42.267 23.2707C33.9757 23.5252 30.3705 16.1271 30.3705 11.4902C30.3705 5.94028 35.1528 0.0666504 42.2175 0.0666504C51.1302 0.0666504 55.5 7.11335 55.5 14.7494C55.5 31.2968 36.7092 44.3333 32.213 44.3333Z" fill="white"/>
</svg>
