<svg width="190" height="161" viewBox="0 0 190 161" fill="none" xmlns="http://www.w3.org/2000/svg">
<g id="F/logo">
<path id="Vector" d="M31.1487 123.018V68.6201H34.511V119.663H86.8799V123.018H31.1487Z" fill="white" stroke="white" stroke-width="0.00786369"/>
<path id="Vector_2" d="M86.9539 60.4752H31.5293L86.9539 25.5637V60.4752Z" fill="white" stroke="white" stroke-width="0.00786369"/>
<path id="Vector_3" d="M50.4658 42.012V48.5427L42.8425 53.3643V42.012H50.4658Z" fill="white" stroke="white" stroke-width="0.00786369"/>
<path id="Vector_4" d="M42.4832 111.413V68.6201H86.9539V111.413H42.4832Z" fill="white" stroke="white" stroke-width="0.00786369"/>
<path id="Vector_5" d="M85.6427 77.4827H78.0089V85.1212H85.6427V77.4827Z" fill="#27374D" stroke="#738087" stroke-width="0.00786369"/>
<path id="Vector_6" d="M85.6427 86.345H78.0089V94.0046H85.6427V86.345Z" fill="#27374D" stroke="#F4F4F4" stroke-opacity="0.137255" stroke-width="0.00786369"/>
<path id="Vector_7" d="M112.932 21.2488V123.018" stroke="white" stroke-width="0.495413"/>
<path id="Vector_8" d="M133.402 32.5586V123.018" stroke="white" stroke-width="0.495413"/>
<path id="Vector_9" d="M89.9777 122.354H158.28" stroke="white" stroke-width="0.495413"/>
<path id="Vector_10" d="M89.9777 110.748H150.012" stroke="white" stroke-width="0.495413"/>
<path id="Vector_11" fill-rule="evenodd" clip-rule="evenodd" d="M91.5637 28.316L166.528 66.8267L167.137 65.6448L91.5637 26.8208V28.316Z" fill="white"/>
<path id="Vector_12" fill-rule="evenodd" clip-rule="evenodd" d="M91.5637 36.8829L166.528 75.3936L167.137 74.2117L91.5637 35.3877V36.8829Z" fill="white"/>
</g>
</svg>
