<svg width="31" height="70" viewBox="0 0 31 70" fill="none" xmlns="http://www.w3.org/2000/svg">
<path id="Vector" d="M15.5905 69.4C18.1822 69.4 20.2911 67.2915 20.2911 64.6998V43.5584C20.2911 41.6713 21.8263 40.136 23.7134 40.136H27.3323C29.1166 40.136 30.5682 38.6844 30.5682 36.9001V1.45998C30.5682 0.985044 30.1832 0.599976 29.7082 0.599976H1.4731C0.998167 0.599976 0.613098 0.985044 0.613098 1.45998V36.9001C0.613098 38.6844 2.06435 40.136 3.8486 40.136H7.4679C9.35503 40.136 10.8903 41.6713 10.8903 43.5584V64.6998C10.8903 67.2915 12.9987 69.4 15.5905 69.4ZM7.34403 2.31998V14.8878C7.34403 15.3627 7.72909 15.7478 8.20403 15.7478C8.67896 15.7478 9.06403 15.3627 9.06403 14.8878V2.31998H14.7846V12.9587C14.7846 13.4336 15.1697 13.8187 15.6446 13.8187C16.1196 13.8187 16.5046 13.4336 16.5046 12.9587V2.31998H22.2256V11.2626C22.2256 11.7376 22.6107 12.1226 23.0856 12.1226C23.5606 12.1226 23.9456 11.7376 23.9456 11.2626V2.31998H28.8482V28.681H2.3331V2.31998H7.34403ZM7.4679 38.416H3.8486C3.01295 38.416 2.3331 37.7362 2.3331 36.9001V30.401H28.8482V36.9001C28.8482 37.7362 28.1684 38.416 27.3323 38.416H23.7134C20.8781 38.416 18.5711 40.7231 18.5711 43.5584V64.6998C18.5711 66.3429 17.234 67.68 15.5905 67.68C13.9473 67.68 12.6103 66.3429 12.6103 64.6998V43.5584C12.6103 40.7231 10.3032 38.416 7.4679 38.416Z" fill="#27374D"/>
</svg>
